# xmcd
#
# Track frame offsets:
#	150
#	16750
#	30990
#	44357
#	53827
#	70167
#	81860
#	94850
#	107225
#	118857
#
# Disc length: 1769 seconds
#
# Revision: 1
# Processed by: cddbd v1.4PL0 Copyright (c) Steve Scherf et al.
# Submitted via: audiograbber 1.82.02
#
DISCID=7a06e70a
DTITLE=Merle Haggard - Sings Story Songs
DYEAR=1996
DGENRE=Country
TTITLE0=Daddy Frank (The Guitar Man)
TTITLE1=Branded Man
TTITLE2=Farmer's Daughter
TTITLE3=Legend of Bonnie And Clyde
TTITLE4=Mama's Hungry Eyes
TTITLE5=Carolyn
TTITLE6=Kentucky Gambler
TTITLE7=Roots of My Raising
TTITLE8=From Graceland to The Promised Land
TTITLE9=I'm A Lonesome Fugitive
EXTD=
EXTT0=
EXTT1=
EXTT2=
EXTT3=
EXTT4=
EXTT5=
EXTT6=
EXTT7=
EXTT8=
EXTT9=
PLAYORDER=
